<svg xmlns="http://www.w3.org/2000/svg" viewBox="0 0 880 320" font-family="ui-monospace, SFMono-Regular, Menlo, monospace">
  <!-- The closed loop (dark): apply -> work -> capture -> distill -> recall. -->
  <style>
    .lbl  { font-size: 13px; fill: #f4efe6; letter-spacing: 0.08em; text-transform: uppercase; }
    .sub  { font-size: 10px; fill: #78716c; }
    .core { font-size: 11px; fill: #b0aaa0; letter-spacing: 0.16em; }
  </style>

  <circle cx="440" cy="165" r="92" fill="none" stroke="#44403c" stroke-width="1.4"/>

  <circle r="5" fill="#9be29b">
    <animateMotion dur="13s" repeatCount="indefinite" calcMode="linear"
      path="M 440 73 a 92 92 0 1 0 0 184 a 92 92 0 1 0 0 -184 Z"/>
  </circle>

  <g fill="#f4efe6">
    <circle cx="440" cy="73"  r="5"/>
    <circle cx="527" cy="137" r="5"/>
    <circle cx="494" cy="239" r="5"/>
    <circle cx="386" cy="239" r="5"/>
    <circle cx="353" cy="137" r="5"/>
  </g>

  <path d="M 372 214 A 6 6 0 1 1 363 205 A 4.7 4.7 0 0 0 372 214 Z" fill="#78716c"/>

  <text x="440" y="52" text-anchor="middle" class="lbl">apply</text>
  <text x="440" y="40" text-anchor="middle" class="sub">context injected</text>

  <text x="548" y="134" text-anchor="start" class="lbl">work</text>
  <text x="548" y="148" text-anchor="start" class="sub">tasks &#183; traces</text>

  <text x="332" y="134" text-anchor="end" class="lbl">recall</text>
  <text x="332" y="148" text-anchor="end" class="sub">memory_search</text>

  <text x="514" y="237" text-anchor="start" class="lbl">capture</text>
  <text x="514" y="251" text-anchor="start" class="sub">learning_capture</text>

  <text x="366" y="237" text-anchor="end" class="lbl">distill</text>
  <text x="366" y="251" text-anchor="end" class="sub">dream-cycle &#183; nightly</text>

  <g transform="translate(421 138) scale(0.10)" fill="#f4efe6">
    <path d="M 1 0 H 89 L 228 216 H 130 L 76 116 V 216 H 0 Z"/>
    <path d="M 168 0 H 264 L 394 216 H 298 Z"/>
  </g>
  <text x="440" y="182" text-anchor="middle" class="core">DIGITAL ME</text>
  <text x="440" y="198" text-anchor="middle" class="sub">one brain &#183; every agent</text>
</svg>
