<svg xmlns="http://www.w3.org/2000/svg" viewBox="0 0 880 260" font-family="ui-monospace, SFMono-Regular, Menlo, monospace">
  <!-- The closed loop (dark): apply -> work -> capture -> distill -> recall. -->
  <style>
    .lbl  { font-size: 13px; fill: #f4efe6; letter-spacing: 0.08em; text-transform: uppercase; }
    .sub  { font-size: 10px; fill: #78716c; }
    .core { font-size: 11px; fill: #b0aaa0; letter-spacing: 0.16em; }
  </style>

  <circle cx="440" cy="135" r="86" fill="none" stroke="#44403c" stroke-width="1.4"/>

  <circle r="5" fill="#9be29b">
    <animateMotion dur="13s" repeatCount="indefinite" calcMode="linear"
      path="M 440 49 a 86 86 0 1 0 0 172 a 86 86 0 1 0 0 -172 Z"/>
  </circle>

  <g fill="#f4efe6">
    <circle cx="440" cy="49"  r="5"/>
    <circle cx="522" cy="108" r="5"/>
    <circle cx="491" cy="205" r="5"/>
    <circle cx="389" cy="205" r="5"/>
    <circle cx="358" cy="108" r="5"/>
  </g>

  <path d="M 380 184 A 6 6 0 1 1 371 175 A 4.7 4.7 0 0 0 380 184 Z" fill="#78716c"/>

  <text x="440" y="38" text-anchor="middle" class="lbl">apply</text>
  <text x="440" y="26" text-anchor="middle" class="sub">context injected</text>

  <text x="540" y="105" text-anchor="start" class="lbl">work</text>
  <text x="540" y="119" text-anchor="start" class="sub">tasks &#183; traces</text>

  <text x="340" y="105" text-anchor="end" class="lbl">recall</text>
  <text x="340" y="119" text-anchor="end" class="sub">memory_search</text>

  <text x="508" y="205" text-anchor="start" class="lbl">capture</text>
  <text x="508" y="219" text-anchor="start" class="sub">learning_capture</text>

  <text x="372" y="205" text-anchor="end" class="lbl">distill</text>
  <text x="372" y="219" text-anchor="end" class="sub">dream-cycle &#183; nightly</text>

  <g transform="translate(421 110) scale(0.095)" fill="#f4efe6">
    <path d="M 1 0 H 89 L 228 216 H 130 L 76 116 V 216 H 0 Z"/>
    <path d="M 168 0 H 264 L 394 216 H 298 Z"/>
  </g>
  <text x="440" y="152" text-anchor="middle" class="core">DIGITAL ME</text>
  <text x="440" y="167" text-anchor="middle" class="sub">one brain &#183; every agent</text>
</svg>
